<?xml version="1.0" encoding="utf-8"?>
<svg version="1.1" id="Layer_1"
xmlns="http://www.w3.org/2000/svg"
xmlns:xlink="http://www.w3.org/1999/xlink"
xmlns:author="http://www.sothink.com"
width="35px" height="35px"
xml:space="preserve">
<g id="371" transform="matrix(1, 0, 0, 1, 17.25, 17.25)">
<radialGradient
id="RadialGradID_321" gradientUnits="userSpaceOnUse" gradientTransform="matrix(0.0315552, 0, 0, -0.0315552, -0.6, -13.2)" spreadMethod ="pad" cx="0" cy="0" r="819.2" fx="0" fy="0" >
<stop  offset="0"  style="stop-color:#E5E653;stop-opacity:1" />
<stop  offset="1"  style="stop-color:#80B539;stop-opacity:1" />
</radialGradient>
<path style="fill:url(#RadialGradID_321) " d="M12.25,-12.2Q17.3 -7.15 17.3 0Q17.3 7.2 12.25 12.25Q7.2 17.3 0 17.3Q-7.15 17.3 -12.2 12.25Q-17.25 7.2 -17.25 0Q-17.25 -7.15 -12.2 -12.2Q-7.15 -17.25 0 -17.25Q7.2 -17.25 12.25 -12.2" />
<path style="fill:#608D2B;fill-opacity:1" d="M0,-16.25Q-6.7 -16.25 -11.5 -11.5Q-16.25 -6.7 -16.25 0Q-16.25 6.75 -11.5 11.55Q-6.7 16.3 0 16.3Q6.75 16.3 11.55 11.55Q16.3 6.75 16.3 0Q16.3 -6.7 11.55 -11.5Q6.75 -16.25 0 -16.25M12.25,-12.2Q17.3 -7.15 17.3 0Q17.3 7.2 12.25 12.25Q7.2 17.3 0 17.3Q-7.15 17.3 -12.2 12.25Q-17.25 7.2 -17.25 0Q-17.25 -7.15 -12.2 -12.2Q-7.15 -17.25 0 -17.25Q7.2 -17.25 12.25 -12.2" />
</g>
</svg>
